<svg width="512" height="159" viewBox="0 0 512 159" fill="none" xmlns="http://www.w3.org/2000/svg">
<path fill-rule="evenodd" clip-rule="evenodd" d="M92.0395 43.8999L91.6599 44.9387L90.4103 48.2622L89.5809 50.4054C83.2825 66.4687 78.3827 74.0924 73.1747 74.0924C70.1732 74.0924 68.3969 73.2006 66.097 71.1073L65.4332 70.4859C63.7786 68.9126 63.0818 68.5259 61.4901 68.5259C60.6604 68.5259 59.176 69.6209 57.2976 72.1769C55.3497 74.8273 53.2135 78.743 50.9178 83.9005L50.704 84.3831L73.0481 84.3842L70.266 90.3304H49.4008V114.747H43.2676V43.8999H92.0395ZM83.3455 49.8482L49.4004 49.846V73.4575C53.4676 66.1903 57.3323 62.5418 61.4901 62.5418C64.7227 62.5418 66.6274 63.4794 69.0306 65.6616L69.7162 66.3026C71.261 67.7714 71.8563 68.1083 73.1747 68.1083C74.6324 68.1083 78.493 61.7967 83.3455 49.8482ZM117.728 43.9019L122.619 43.8999C132.483 43.8999 145.761 48.581 145.761 67.4314C145.761 78.6244 140.143 85.7514 133.091 88.9291L132.483 89.1918L145.761 114.747H138.426L126.034 90.8365C125.56 90.9313 125.014 90.9551 124.504 90.9609L109.974 90.9628V114.747H103.524V44.0265L107.765 43.9612C111.18 43.9194 114.356 43.9061 117.728 43.9019ZM122.24 49.9725H109.974V85.0168H122.999C131.345 85.0168 139.438 79.3237 139.438 67.1785C139.438 54.92 132.291 50.1754 122.858 49.9789L122.24 49.9725ZM438.405 43.9068L445.591 43.8999C455.455 43.8999 468.732 48.581 468.732 67.4314C468.732 78.6244 463.115 85.7514 456.062 88.9291L455.455 89.1918L468.732 114.747H461.399L449.006 90.8365C448.532 90.9313 447.986 90.9551 447.475 90.9609L432.945 90.9628V114.747H426.496V44.0265L430.129 43.9703C433.04 43.9322 435.699 43.9147 438.405 43.9068ZM445.211 49.9725H432.945V85.0168H445.97C454.317 85.0168 462.41 79.3237 462.41 67.1785C462.41 54.92 455.264 50.1754 445.829 49.9789L445.211 49.9725ZM187.872 43.2673C202.065 43.2673 216.26 54.306 216.693 77.1077L216.704 78.185V80.4623C216.704 103.994 202.287 115.38 187.872 115.38C173.552 115.38 159.479 104.341 159.049 81.5397L159.039 80.4623V78.185C159.039 54.6536 173.329 43.2673 187.872 43.2673ZM187.872 49.2134C177.053 49.2134 165.745 57.4097 165.371 77.1702L165.362 78.185V80.4623C165.362 100.831 176.869 109.307 187.745 109.307C198.685 109.307 209.99 101.116 210.371 81.4878L210.38 80.4623V78.185C210.38 57.6899 198.872 49.2134 187.872 49.2134ZM322.169 114.748V49.9724H337.595L340.377 43.8992H297.638V49.9724H315.846V114.748H322.169ZM359.35 43.5206V114.748H353.026V43.5206H359.35ZM411.066 114.748L413.849 108.8H379.832V84.1318H402.47L405.252 78.1839H379.832V49.8471H411.066L413.849 43.8992H373.637V114.748H411.066ZM285.312 44.15V114.838H284.073L242.169 65.9549C240.207 63.5799 237.317 59.9739 237.317 59.9739V67.4417V114.838L230.919 114.797V43.857H232.158L274.062 93.1527C276.024 95.5278 278.733 98.4963 278.733 98.4963V91.707V44.15H285.312Z" fill="#CC703C"/>
</svg>
