<svg width="88" height="88" viewBox="0 0 88 88" fill="none" xmlns="http://www.w3.org/2000/svg">
<path d="M63.7966 22L63.5608 22.6451L62.7846 24.7093L62.2693 26.0403C58.3569 36.0164 55.3131 40.7511 52.078 40.7511C50.2135 40.7511 49.1101 40.1972 47.6815 38.8973L47.2691 38.5113C46.2412 37.5342 45.8084 37.294 44.8196 37.294C44.3042 37.294 43.3821 37.9741 42.2153 39.5615C41.0053 41.2075 39.6783 43.6393 38.2523 46.8424L38.1194 47.1422L51.9994 47.1429L50.2712 50.8357H37.3098V66H33.5V22H63.7966ZM58.396 25.6941L37.3096 25.6929V40.3568C39.8361 35.8435 42.2368 33.5775 44.8196 33.5775C46.8277 33.5775 48.0109 34.1599 49.5037 35.5151L49.9296 35.9133C50.8892 36.8255 51.259 37.0347 52.078 37.0347C52.9835 37.0347 55.3817 33.1149 58.396 25.6941Z" fill="black"/>
</svg>
