<svg width="512" height="512" viewBox="0 0 512 512" fill="none" xmlns="http://www.w3.org/2000/svg">
<g clip-path="url(#clip0_7_697)">
<path d="M512 0H0V512H512V0Z" fill="#CC703C"/>
<path d="M371.18 128L369.808 131.753L365.292 143.763L362.294 151.507C339.531 209.55 321.822 237.097 302.999 237.097C292.151 237.097 285.731 233.875 277.419 226.312L275.02 224.066C269.04 218.381 266.521 216.983 260.768 216.983C257.77 216.983 252.405 220.94 245.616 230.176C238.576 239.753 230.855 253.901 222.559 272.538L221.785 274.282L302.542 274.286L292.487 295.771H217.075V384H194.909V128H371.18ZM339.758 149.493L217.074 149.486V234.803C231.774 208.544 245.741 195.36 260.768 195.36C272.452 195.36 279.336 198.749 288.021 206.633L290.499 208.95C296.082 214.257 298.234 215.475 302.999 215.475C308.267 215.475 322.221 192.669 339.758 149.493Z" fill="white"/>
</g>
<defs>
<clipPath id="clip0_7_697">
<rect width="512" height="512" rx="256" fill="white"/>
</clipPath>
</defs>
</svg>
